# xmcd
#
# Track frame offsets:
#	150
#	17913
#	43879
#	65508
#	81212
#	100967
#	116649
#	132357
#	156148
#	181908
#
# Disc length: 2679 seconds
#
# Revision: 1
# Processed by: cddbd v1.5.2PL0 Copyright (c) Steve Scherf et al.
# Submitted via: dBpowerAMP V4.0
#
DISCID=860a750a
DTITLE=Noam Pikelny - In the Maze
DYEAR=2004
DGENRE=Bluegrass
TTITLE0=Speed Bump
TTITLE1=Super Grouper
TTITLE2=Millvale Waltz
TTITLE3=Manchicken
TTITLE4=Orange Front
TTITLE5=For Pete's Sake
TTITLE6=In the Maze
TTITLE7=Flight of the Green Chair
TTITLE8=Charlie's Song
TTITLE9=Overland
EXTD=
EXTT0=
EXTT1=
EXTT2=
EXTT3=
EXTT4=
EXTT5=
EXTT6=
EXTT7=
EXTT8=
EXTT9=
PLAYORDER=
